<?xml version="1.0" encoding="UTF-8"?>
<svg width="36px" height="27px" viewBox="0 0 36 27" version="1.1" xmlns="http://www.w3.org/2000/svg" xmlns:xlink="http://www.w3.org/1999/xlink">
    <title>icon / pickups</title>
    <defs>
        <path d="M37.0909091,16.5454545 L32.1818182,16.5454545 L32.1818182,10 L9.27272727,10 C7.47272727,10 6,11.4727273 6,13.2727273 L6,31.2727273 L9.27272727,31.2727273 C9.27272727,33.9890909 11.4654545,36.1818182 14.1818182,36.1818182 C16.8981818,36.1818182 19.0909091,33.9890909 19.0909091,31.2727273 L28.9090909,31.2727273 C28.9090909,33.9890909 31.1018182,36.1818182 33.8181818,36.1818182 C36.5345455,36.1818182 38.7272727,33.9890909 38.7272727,31.2727273 L42,31.2727273 L42,23.0909091 L37.0909091,16.5454545 L37.0909091,16.5454545 Z M14.1818182,33.7272727 C12.8236364,33.7272727 11.7272727,32.6309091 11.7272727,31.2727273 C11.7272727,29.9145455 12.8236364,28.8181818 14.1818182,28.8181818 C15.54,28.8181818 16.6363636,29.9145455 16.6363636,31.2727273 C16.6363636,32.6309091 15.54,33.7272727 14.1818182,33.7272727 L14.1818182,33.7272727 Z M36.2727273,19 L39.48,23.0909091 L32.1818182,23.0909091 L32.1818182,19 L36.2727273,19 L36.2727273,19 Z M33.8181818,33.7272727 C32.46,33.7272727 31.3636364,32.6309091 31.3636364,31.2727273 C31.3636364,29.9145455 32.46,28.8181818 33.8181818,28.8181818 C35.1763636,28.8181818 36.2727273,29.9145455 36.2727273,31.2727273 C36.2727273,32.6309091 35.1763636,33.7272727 33.8181818,33.7272727 L33.8181818,33.7272727 Z" id="path-1"></path>
    </defs>
    <g id="Page-1" stroke="none" stroke-width="1" fill="none" fill-rule="evenodd">
        <g id="Desktop_01" transform="translate(-464.000000, -203.000000)">
            <g id="Status" transform="translate(252.000000, 145.000000)">
                <g id="icon-/-pickups" transform="translate(206.000000, 48.802209)">
                    <mask id="mask-2" fill="white">
                        <use xlink:href="#path-1"></use>
                    </mask>
                    <g id="Mask"></g>
                    <rect id="Rectangle" fill="#000000" mask="url(#mask-2)" x="0" y="0" width="48" height="48"></rect>
                </g>
            </g>
        </g>
    </g>
</svg>